<svg xmlns="http://www.w3.org/2000/svg" viewBox="0 0 224 224" width="24" height="24"><g fill="none" stroke-miterlimit="10" font-family="none" font-weight="none" font-size="none" text-anchor="none" style="mix-blend-mode:normal"><path d="M0 224V0h224v224z"/><path d="M177.333 28H46.667C36.353 28 28 36.353 28 46.667v130.666C28 187.647 36.353 196 46.667 196h71.129v-64.97H95.928v-25.433h21.868V86.884c0-21.69 13.263-33.516 32.62-33.516 6.524-.019 13.039.317 19.525.98v22.68h-13.328c-10.546 0-12.6 4.984-12.6 12.339v16.193h25.2l-3.276 25.433h-22.073V196h33.47c10.313 0 18.666-8.353 18.666-18.667V46.667C196 36.353 187.647 28 177.333 28z" fill="#151926"/></g></svg>