<svg xmlns="http://www.w3.org/2000/svg" viewBox="0 0 224 224" width="32" height="32"><g fill="none" fill-rule="none" stroke-miterlimit="10" font-family="none" font-weight="none" font-size="none" text-anchor="none" style="mix-blend-mode:normal"><path d="M0 224V0h224v224z"/><path d="M112 28c-46.402 0-84 37.598-84 84 0 37.105 24.063 68.605 57.45 79.707 4.21.766 5.741-1.805 5.741-4.047 0-1.996-.082-7.273-.109-14.273-23.379 5.058-28.3-11.266-28.3-11.266-3.829-9.707-9.325-12.305-9.325-12.305-7.629-5.195.574-5.086.574-5.086 8.422.602 12.852 8.641 12.852 8.641 7.492 12.852 19.66 9.133 24.445 7 .766-5.441 2.953-9.133 5.332-11.238-18.648-2.106-38.254-9.324-38.254-41.508 0-9.187 3.282-16.68 8.64-22.559-.847-2.105-3.745-10.664.821-22.23 0 0 7.055-2.242 23.106 8.613 6.699-1.86 13.89-2.789 21.027-2.816 7.137.027 14.328.957 21.027 2.816 16.051-10.855 23.078-8.613 23.078-8.613 4.594 11.566 1.723 20.125.848 22.23 5.387 5.88 8.613 13.372 8.613 22.559 0 32.266-19.632 39.348-38.336 41.453 3.008 2.57 5.688 7.711 5.688 15.531 0 11.239-.082 20.29-.082 23.051 0 2.242 1.504 4.867 5.77 4.047C171.964 180.578 196 149.105 196 112c0-46.402-37.598-84-84-84z" fill="#151926" fill-rule="evenodd"/></g></svg>