<svg xmlns="http://www.w3.org/2000/svg" viewBox="0 0 224 224" width="24" height="24"><g fill="none" stroke-miterlimit="10" font-family="none" font-weight="none" font-size="none" text-anchor="none" style="mix-blend-mode:normal"><path d="M0 224V0h224v224z"/><path d="M177.333 28H46.667C36.353 28 28 36.353 28 46.667v130.666C28 187.647 36.353 196 46.667 196h130.666c10.314 0 18.667-8.353 18.667-18.667V46.667C196 36.353 187.647 28 177.333 28zM84 158.667H60.452V93.333H84zM71.81 81.359c-7.195 0-12.002-4.798-12.002-11.2 0-6.403 4.797-11.2 12.796-11.2 7.196 0 12.003 4.797 12.003 11.2 0 6.402-4.798 11.2-12.796 11.2zM168 158.667h-22.792v-35.71c0-9.874-6.076-12.152-8.353-12.152-2.278 0-9.875 1.522-9.875 12.152v35.71h-23.548V93.333h23.548v9.119c3.033-5.32 9.11-9.119 20.505-9.119 11.396 0 20.515 9.119 20.515 29.624z" fill="#151926"/></g></svg>