<svg xmlns="http://www.w3.org/2000/svg" viewBox="0 0 224 224" width="48" height="48"><g fill="none" stroke-miterlimit="10" font-family="none" font-weight="none" font-size="none" text-anchor="none" style="mix-blend-mode:normal"><path d="M0 224V0h224v224z"/><path d="M0 112C0 50.144 50.144 0 112 0s112 50.144 112 112-50.144 112-112 112S0 173.856 0 112zm112 94.08c51.959 0 94.08-42.121 94.08-94.08 0-51.959-42.121-94.08-94.08-94.08-51.959 0-94.08 42.121-94.08 94.08 0 51.959 42.121 94.08 94.08 94.08z" fill="#000"/><path d="M52.034 65.36a6.664 6.664 0 1 0 0 13.325h119.932a6.664 6.664 0 1 0 0-13.325zm0 39.977a6.664 6.664 0 1 0 0 13.326h119.932a6.664 6.664 0 1 0 0-13.326zm0 39.978a6.664 6.664 0 1 0 0 13.325h119.932a6.664 6.664 0 1 0 0-13.325z" fill="#000"/><path d="M112 224C50.144 224 0 173.856 0 112S50.144 0 112 0s112 50.144 112 112-50.144 112-112 112z"/><path d="M112 210.56c-54.433 0-98.56-44.127-98.56-98.56S57.567 13.44 112 13.44s98.56 44.127 98.56 98.56-44.127 98.56-98.56 98.56z"/><path d="M112 224C50.144 224 0 173.856 0 112S50.144 0 112 0s112 50.144 112 112-50.144 112-112 112z"/><path d="M112 206.08c-51.959 0-94.08-42.121-94.08-94.08 0-51.959 42.121-94.08 94.08-94.08 51.959 0 94.08 42.121 94.08 94.08 0 51.959-42.121 94.08-94.08 94.08z"/><path d="M112 224C50.144 224 0 173.856 0 112S50.144 0 112 0s112 50.144 112 112-50.144 112-112 112z"/><path d="M112 201.6c-49.485 0-89.6-40.115-89.6-89.6 0-49.485 40.115-89.6 89.6-89.6 49.485 0 89.6 40.115 89.6 89.6 0 49.485-40.115 89.6-89.6 89.6z"/><path d="M112 224C50.144 224 0 173.856 0 112S50.144 0 112 0s112 50.144 112 112-50.144 112-112 112z"/><path d="M112 197.12c-47.01 0-85.12-38.11-85.12-85.12 0-47.01 38.11-85.12 85.12-85.12 47.01 0 85.12 38.11 85.12 85.12 0 47.01-38.11 85.12-85.12 85.12z"/><path d="M112 224C50.144 224 0 173.856 0 112S50.144 0 112 0s112 50.144 112 112-50.144 112-112 112z"/><path d="M112 192.64c-44.536 0-80.64-36.104-80.64-80.64S67.464 31.36 112 31.36s80.64 36.104 80.64 80.64-36.104 80.64-80.64 80.64z"/><path d="M112 224C50.144 224 0 173.856 0 112S50.144 0 112 0s112 50.144 112 112-50.144 112-112 112z"/><path d="M112 197.12c-47.01 0-85.12-38.11-85.12-85.12 0-47.01 38.11-85.12 85.12-85.12 47.01 0 85.12 38.11 85.12 85.12 0 47.01-38.11 85.12-85.12 85.12z"/><path d="M112 224C50.144 224 0 173.856 0 112S50.144 0 112 0s112 50.144 112 112-50.144 112-112 112z"/><path d="M112 201.6c-49.485 0-89.6-40.115-89.6-89.6 0-49.485 40.115-89.6 89.6-89.6 49.485 0 89.6 40.115 89.6 89.6 0 49.485-40.115 89.6-89.6 89.6z"/><path d="M112 224C50.144 224 0 173.856 0 112S50.144 0 112 0s112 50.144 112 112-50.144 112-112 112z"/><path d="M112 206.08c-51.959 0-94.08-42.121-94.08-94.08 0-51.959 42.121-94.08 94.08-94.08 51.959 0 94.08 42.121 94.08 94.08 0 51.959-42.121 94.08-94.08 94.08z"/><path d="M112 224C50.144 224 0 173.856 0 112S50.144 0 112 0s112 50.144 112 112-50.144 112-112 112z"/><path d="M112 206.08c-51.959 0-94.08-42.121-94.08-94.08 0-51.959 42.121-94.08 94.08-94.08 51.959 0 94.08 42.121 94.08 94.08 0 51.959-42.121 94.08-94.08 94.08z"/><path d="M112 224C50.144 224 0 173.856 0 112S50.144 0 112 0s112 50.144 112 112-50.144 112-112 112z"/><path d="M112 206.08c-51.959 0-94.08-42.121-94.08-94.08 0-51.959 42.121-94.08 94.08-94.08 51.959 0 94.08 42.121 94.08 94.08 0 51.959-42.121 94.08-94.08 94.08z"/><path d="M112 224C50.144 224 0 173.856 0 112S50.144 0 112 0s112 50.144 112 112-50.144 112-112 112z"/><path d="M112 206.08c-51.959 0-94.08-42.121-94.08-94.08 0-51.959 42.121-94.08 94.08-94.08 51.959 0 94.08 42.121 94.08 94.08 0 51.959-42.121 94.08-94.08 94.08z"/><path d="M112 224C50.144 224 0 173.856 0 112S50.144 0 112 0s112 50.144 112 112-50.144 112-112 112z"/><path d="M112 206.08c-51.959 0-94.08-42.121-94.08-94.08 0-51.959 42.121-94.08 94.08-94.08 51.959 0 94.08 42.121 94.08 94.08 0 51.959-42.121 94.08-94.08 94.08z"/><path d="M112 224C50.144 224 0 173.856 0 112S50.144 0 112 0s112 50.144 112 112-50.144 112-112 112z"/><path d="M112 206.08c-51.959 0-94.08-42.121-94.08-94.08 0-51.959 42.121-94.08 94.08-94.08 51.959 0 94.08 42.121 94.08 94.08 0 51.959-42.121 94.08-94.08 94.08z"/><path d="M112 224C50.144 224 0 173.856 0 112S50.144 0 112 0s112 50.144 112 112-50.144 112-112 112z"/><path d="M112 206.08c-51.959 0-94.08-42.121-94.08-94.08 0-51.959 42.121-94.08 94.08-94.08 51.959 0 94.08 42.121 94.08 94.08 0 51.959-42.121 94.08-94.08 94.08z"/><path d="M112 224C50.144 224 0 173.856 0 112S50.144 0 112 0s112 50.144 112 112-50.144 112-112 112z"/><path d="M112 206.08c-51.959 0-94.08-42.121-94.08-94.08 0-51.959 42.121-94.08 94.08-94.08 51.959 0 94.08 42.121 94.08 94.08 0 51.959-42.121 94.08-94.08 94.08z"/><path d="M112 224C50.144 224 0 173.856 0 112S50.144 0 112 0s112 50.144 112 112-50.144 112-112 112z"/><path d="M112 206.08c-51.959 0-94.08-42.121-94.08-94.08 0-51.959 42.121-94.08 94.08-94.08 51.959 0 94.08 42.121 94.08 94.08 0 51.959-42.121 94.08-94.08 94.08z"/><path d="M112 224C50.144 224 0 173.856 0 112S50.144 0 112 0s112 50.144 112 112-50.144 112-112 112z"/><path d="M112 206.08c-51.959 0-94.08-42.121-94.08-94.08 0-51.959 42.121-94.08 94.08-94.08 51.959 0 94.08 42.121 94.08 94.08 0 51.959-42.121 94.08-94.08 94.08z"/><path d="M112 224C50.144 224 0 173.856 0 112S50.144 0 112 0s112 50.144 112 112-50.144 112-112 112z"/><path d="M112 206.08c-51.959 0-94.08-42.121-94.08-94.08 0-51.959 42.121-94.08 94.08-94.08 51.959 0 94.08 42.121 94.08 94.08 0 51.959-42.121 94.08-94.08 94.08z"/><path d="M112 224C50.144 224 0 173.856 0 112S50.144 0 112 0s112 50.144 112 112-50.144 112-112 112z"/><path d="M112 206.08c-51.959 0-94.08-42.121-94.08-94.08 0-51.959 42.121-94.08 94.08-94.08 51.959 0 94.08 42.121 94.08 94.08 0 51.959-42.121 94.08-94.08 94.08z"/><path d="M112 224C50.144 224 0 173.856 0 112S50.144 0 112 0s112 50.144 112 112-50.144 112-112 112z"/><path d="M112 206.08c-51.959 0-94.08-42.121-94.08-94.08 0-51.959 42.121-94.08 94.08-94.08 51.959 0 94.08 42.121 94.08 94.08 0 51.959-42.121 94.08-94.08 94.08z"/><path d="M112 224C50.144 224 0 173.856 0 112S50.144 0 112 0s112 50.144 112 112-50.144 112-112 112z"/><path d="M112 206.08c-51.959 0-94.08-42.121-94.08-94.08 0-51.959 42.121-94.08 94.08-94.08 51.959 0 94.08 42.121 94.08 94.08 0 51.959-42.121 94.08-94.08 94.08z"/><path d="M112 224C50.144 224 0 173.856 0 112S50.144 0 112 0s112 50.144 112 112-50.144 112-112 112z"/><path d="M112 206.08c-51.959 0-94.08-42.121-94.08-94.08 0-51.959 42.121-94.08 94.08-94.08 51.959 0 94.08 42.121 94.08 94.08 0 51.959-42.121 94.08-94.08 94.08z"/><path d="M112 224C50.144 224 0 173.856 0 112S50.144 0 112 0s112 50.144 112 112-50.144 112-112 112z"/><path d="M112 206.08c-51.959 0-94.08-42.121-94.08-94.08 0-51.959 42.121-94.08 94.08-94.08 51.959 0 94.08 42.121 94.08 94.08 0 51.959-42.121 94.08-94.08 94.08z"/><path d="M112 224C50.144 224 0 173.856 0 112S50.144 0 112 0s112 50.144 112 112-50.144 112-112 112z"/><path d="M112 206.08c-51.959 0-94.08-42.121-94.08-94.08 0-51.959 42.121-94.08 94.08-94.08 51.959 0 94.08 42.121 94.08 94.08 0 51.959-42.121 94.08-94.08 94.08z"/><path d="M112 224C50.144 224 0 173.856 0 112S50.144 0 112 0s112 50.144 112 112-50.144 112-112 112z"/><path d="M112 206.08c-51.959 0-94.08-42.121-94.08-94.08 0-51.959 42.121-94.08 94.08-94.08 51.959 0 94.08 42.121 94.08 94.08 0 51.959-42.121 94.08-94.08 94.08z"/><path d="M112 224C50.144 224 0 173.856 0 112S50.144 0 112 0s112 50.144 112 112-50.144 112-112 112z"/><path d="M112 206.08c-51.959 0-94.08-42.121-94.08-94.08 0-51.959 42.121-94.08 94.08-94.08 51.959 0 94.08 42.121 94.08 94.08 0 51.959-42.121 94.08-94.08 94.08z"/><path d="M112 224C50.144 224 0 173.856 0 112S50.144 0 112 0s112 50.144 112 112-50.144 112-112 112z"/><path d="M112 206.08c-51.959 0-94.08-42.121-94.08-94.08 0-51.959 42.121-94.08 94.08-94.08 51.959 0 94.08 42.121 94.08 94.08 0 51.959-42.121 94.08-94.08 94.08z"/></g></svg>