<svg xmlns="http://www.w3.org/2000/svg" viewBox="0 0 224 224" width="24" height="24"><g fill="none" stroke-miterlimit="10" font-family="none" font-weight="none" font-size="none" text-anchor="none" style="mix-blend-mode:normal"><path d="M33.6 190.4V33.6h156.8v156.8z"/><path d="M33.6 112c0-43.3 35.1-78.4 78.4-78.4 43.3 0 78.4 35.1 78.4 78.4 0 43.3-35.1 78.4-78.4 78.4-43.3 0-78.4-35.1-78.4-78.4zm78.4 72.128c39.835 0 72.128-32.293 72.128-72.128S151.835 39.872 112 39.872 39.872 72.165 39.872 112 72.165 184.128 112 184.128z" fill="#000"/><path d="M74.23 82.623a4.197 4.197 0 1 0 0 8.393h75.54a4.197 4.197 0 1 0 0-8.393zm0 25.18a4.197 4.197 0 1 0 0 8.394h75.54a4.197 4.197 0 1 0 0-8.394zm0 25.18a4.197 4.197 0 1 0 0 8.394h75.54a4.197 4.197 0 1 0 0-8.393z" fill="#151926"/><path d="M112 190.4c-43.3 0-78.4-35.1-78.4-78.4 0-43.3 35.1-78.4 78.4-78.4 43.3 0 78.4 35.1 78.4 78.4 0 43.3-35.1 78.4-78.4 78.4z"/><path d="M112 187.264c-41.567 0-75.264-33.697-75.264-75.264 0-41.567 33.697-75.264 75.264-75.264 41.567 0 75.264 33.697 75.264 75.264 0 41.567-33.697 75.264-75.264 75.264z"/><path d="M112 190.4c-43.3 0-78.4-35.1-78.4-78.4 0-43.3 35.1-78.4 78.4-78.4 43.3 0 78.4 35.1 78.4 78.4 0 43.3-35.1 78.4-78.4 78.4z"/><path d="M112 184.128c-39.835 0-72.128-32.293-72.128-72.128S72.165 39.872 112 39.872 184.128 72.165 184.128 112 151.835 184.128 112 184.128z"/><path d="M112 190.4c-43.3 0-78.4-35.1-78.4-78.4 0-43.3 35.1-78.4 78.4-78.4 43.3 0 78.4 35.1 78.4 78.4 0 43.3-35.1 78.4-78.4 78.4z"/><path d="M112 180.992c-38.103 0-68.992-30.889-68.992-68.992 0-38.103 30.889-68.992 68.992-68.992 38.103 0 68.992 30.889 68.992 68.992 0 38.103-30.889 68.992-68.992 68.992z"/><path d="M112 190.4c-43.3 0-78.4-35.1-78.4-78.4 0-43.3 35.1-78.4 78.4-78.4 43.3 0 78.4 35.1 78.4 78.4 0 43.3-35.1 78.4-78.4 78.4z"/><path d="M112 177.856c-36.371 0-65.856-29.485-65.856-65.856 0-36.371 29.485-65.856 65.856-65.856 36.371 0 65.856 29.485 65.856 65.856 0 36.371-29.485 65.856-65.856 65.856z"/><path d="M112 190.4c-43.3 0-78.4-35.1-78.4-78.4 0-43.3 35.1-78.4 78.4-78.4 43.3 0 78.4 35.1 78.4 78.4 0 43.3-35.1 78.4-78.4 78.4z"/><path d="M112 174.72c-34.64 0-62.72-28.08-62.72-62.72S77.36 49.28 112 49.28s62.72 28.08 62.72 62.72-28.08 62.72-62.72 62.72z"/><path d="M112 190.4c-43.3 0-78.4-35.1-78.4-78.4 0-43.3 35.1-78.4 78.4-78.4 43.3 0 78.4 35.1 78.4 78.4 0 43.3-35.1 78.4-78.4 78.4z"/><path d="M112 171.584c-32.907 0-59.584-26.677-59.584-59.584 0-32.907 26.677-59.584 59.584-59.584 32.907 0 59.584 26.677 59.584 59.584 0 32.907-26.677 59.584-59.584 59.584z"/><path d="M112 190.4c-43.3 0-78.4-35.1-78.4-78.4 0-43.3 35.1-78.4 78.4-78.4 43.3 0 78.4 35.1 78.4 78.4 0 43.3-35.1 78.4-78.4 78.4z"/><path d="M112 168.448c-31.175 0-56.448-25.273-56.448-56.448S80.825 55.552 112 55.552 168.448 80.825 168.448 112 143.175 168.448 112 168.448z"/><path d="M112 190.4c-43.3 0-78.4-35.1-78.4-78.4 0-43.3 35.1-78.4 78.4-78.4 43.3 0 78.4 35.1 78.4 78.4 0 43.3-35.1 78.4-78.4 78.4z"/><path d="M112 165.312c-29.443 0-53.312-23.869-53.312-53.312 0-29.443 23.869-53.312 53.312-53.312 29.443 0 53.312 23.869 53.312 53.312 0 29.443-23.869 53.312-53.312 53.312z"/><path d="M112 190.4c-43.3 0-78.4-35.1-78.4-78.4 0-43.3 35.1-78.4 78.4-78.4 43.3 0 78.4 35.1 78.4 78.4 0 43.3-35.1 78.4-78.4 78.4z"/><path d="M112 168.448c-31.175 0-56.448-25.273-56.448-56.448S80.825 55.552 112 55.552 168.448 80.825 168.448 112 143.175 168.448 112 168.448z"/><path d="M112 190.4c-43.3 0-78.4-35.1-78.4-78.4 0-43.3 35.1-78.4 78.4-78.4 43.3 0 78.4 35.1 78.4 78.4 0 43.3-35.1 78.4-78.4 78.4z"/><path d="M112 171.584c-32.907 0-59.584-26.677-59.584-59.584 0-32.907 26.677-59.584 59.584-59.584 32.907 0 59.584 26.677 59.584 59.584 0 32.907-26.677 59.584-59.584 59.584z"/><path d="M112 190.4c-43.3 0-78.4-35.1-78.4-78.4 0-43.3 35.1-78.4 78.4-78.4 43.3 0 78.4 35.1 78.4 78.4 0 43.3-35.1 78.4-78.4 78.4z"/><path d="M112 174.72c-34.64 0-62.72-28.08-62.72-62.72S77.36 49.28 112 49.28s62.72 28.08 62.72 62.72-28.08 62.72-62.72 62.72z"/><path d="M112 190.4c-43.3 0-78.4-35.1-78.4-78.4 0-43.3 35.1-78.4 78.4-78.4 43.3 0 78.4 35.1 78.4 78.4 0 43.3-35.1 78.4-78.4 78.4z"/><path d="M112 177.856c-36.371 0-65.856-29.485-65.856-65.856 0-36.371 29.485-65.856 65.856-65.856 36.371 0 65.856 29.485 65.856 65.856 0 36.371-29.485 65.856-65.856 65.856z"/><path d="M112 190.4c-43.3 0-78.4-35.1-78.4-78.4 0-43.3 35.1-78.4 78.4-78.4 43.3 0 78.4 35.1 78.4 78.4 0 43.3-35.1 78.4-78.4 78.4z"/><path d="M112 180.992c-38.103 0-68.992-30.889-68.992-68.992 0-38.103 30.889-68.992 68.992-68.992 38.103 0 68.992 30.889 68.992 68.992 0 38.103-30.889 68.992-68.992 68.992z"/><path d="M112 190.4c-43.3 0-78.4-35.1-78.4-78.4 0-43.3 35.1-78.4 78.4-78.4 43.3 0 78.4 35.1 78.4 78.4 0 43.3-35.1 78.4-78.4 78.4z"/><path d="M112 184.128c-39.835 0-72.128-32.293-72.128-72.128S72.165 39.872 112 39.872 184.128 72.165 184.128 112 151.835 184.128 112 184.128z"/><path d="M112 188.832c-42.433 0-76.832-34.399-76.832-76.832 0-42.433 34.399-76.832 76.832-76.832 42.433 0 76.832 34.399 76.832 76.832 0 42.433-34.399 76.832-76.832 76.832z"/><path d="M112 182.56c-38.97 0-70.56-31.59-70.56-70.56S73.03 41.44 112 41.44s70.56 31.59 70.56 70.56-31.59 70.56-70.56 70.56z"/><path d="M112 186.48c-41.134 0-74.48-33.346-74.48-74.48 0-41.134 33.346-74.48 74.48-74.48 41.134 0 74.48 33.346 74.48 74.48 0 41.134-33.346 74.48-74.48 74.48z"/><path d="M112 180.208c-37.67 0-68.208-30.538-68.208-68.208S74.33 43.792 112 43.792 180.208 74.33 180.208 112 149.67 180.208 112 180.208z"/><path d="M112 185.696c-40.701 0-73.696-32.995-73.696-73.696S71.299 38.304 112 38.304 185.696 71.299 185.696 112 152.701 185.696 112 185.696z"/><path d="M112 179.424c-37.237 0-67.424-30.187-67.424-67.424 0-37.237 30.187-67.424 67.424-67.424 37.237 0 67.424 30.187 67.424 67.424 0 37.237-30.187 67.424-67.424 67.424z"/><path d="M112 184.912c-40.268 0-72.912-32.644-72.912-72.912 0-40.268 32.644-72.912 72.912-72.912 40.268 0 72.912 32.644 72.912 72.912 0 40.268-32.644 72.912-72.912 72.912z"/><path d="M112 178.64c-36.804 0-66.64-29.836-66.64-66.64S75.196 45.36 112 45.36s66.64 29.836 66.64 66.64-29.836 66.64-66.64 66.64z"/><path d="M112 183.344c-39.402 0-71.344-31.942-71.344-71.344 0-39.402 31.942-71.344 71.344-71.344 39.402 0 71.344 31.942 71.344 71.344 0 39.402-31.942 71.344-71.344 71.344z"/><path d="M112 177.072c-35.938 0-65.072-29.134-65.072-65.072S76.062 46.928 112 46.928 177.072 76.062 177.072 112 147.938 177.072 112 177.072z"/><path d="M112 180.992c-38.103 0-68.992-30.889-68.992-68.992 0-38.103 30.889-68.992 68.992-68.992 38.103 0 68.992 30.889 68.992 68.992 0 38.103-30.889 68.992-68.992 68.992z"/><path d="M112 174.72c-34.64 0-62.72-28.08-62.72-62.72S77.36 49.28 112 49.28s62.72 28.08 62.72 62.72-28.08 62.72-62.72 62.72z"/><path d="M112 180.208c-37.67 0-68.208-30.538-68.208-68.208S74.33 43.792 112 43.792 180.208 74.33 180.208 112 149.67 180.208 112 180.208z"/><path d="M112 173.936c-34.206 0-61.936-27.73-61.936-61.936S77.794 50.064 112 50.064s61.936 27.73 61.936 61.936-27.73 61.936-61.936 61.936z"/><path d="M112 178.64c-36.804 0-66.64-29.836-66.64-66.64S75.196 45.36 112 45.36s66.64 29.836 66.64 66.64-29.836 66.64-66.64 66.64z"/><path d="M112 172.368c-33.34 0-60.368-27.028-60.368-60.368S78.66 51.632 112 51.632 172.368 78.66 172.368 112 145.34 172.368 112 172.368z"/><path d="M112 177.856c-36.371 0-65.856-29.485-65.856-65.856 0-36.371 29.485-65.856 65.856-65.856 36.371 0 65.856 29.485 65.856 65.856 0 36.371-29.485 65.856-65.856 65.856z"/><path d="M112 171.584c-32.907 0-59.584-26.677-59.584-59.584 0-32.907 26.677-59.584 59.584-59.584 32.907 0 59.584 26.677 59.584 59.584 0 32.907-26.677 59.584-59.584 59.584z"/><path d="M112 177.072c-35.938 0-65.072-29.134-65.072-65.072S76.062 46.928 112 46.928 177.072 76.062 177.072 112 147.938 177.072 112 177.072z"/><path d="M112 170.8c-32.474 0-58.8-26.326-58.8-58.8S79.526 53.2 112 53.2s58.8 26.326 58.8 58.8-26.326 58.8-58.8 58.8z"/><path d="M112 176.288c-35.505 0-64.288-28.783-64.288-64.288 0-35.505 28.783-64.288 64.288-64.288 35.505 0 64.288 28.783 64.288 64.288 0 35.505-28.783 64.288-64.288 64.288z"/><path d="M112 170.016c-32.041 0-58.016-25.975-58.016-58.016S79.959 53.984 112 53.984 170.016 79.959 170.016 112 144.041 170.016 112 170.016z"/><path d="M112 175.504c-35.072 0-63.504-28.432-63.504-63.504S76.928 48.496 112 48.496 175.504 76.928 175.504 112 147.072 175.504 112 175.504z"/><path d="M112 169.232c-31.608 0-57.232-25.624-57.232-57.232S80.392 54.768 112 54.768 169.232 80.392 169.232 112 143.608 169.232 112 169.232z"/><path d="M112 174.72c-34.64 0-62.72-28.08-62.72-62.72S77.36 49.28 112 49.28s62.72 28.08 62.72 62.72-28.08 62.72-62.72 62.72z"/><path d="M112 168.448c-31.175 0-56.448-25.273-56.448-56.448S80.825 55.552 112 55.552 168.448 80.825 168.448 112 143.175 168.448 112 168.448z"/><path d="M112 173.936c-34.206 0-61.936-27.73-61.936-61.936S77.794 50.064 112 50.064s61.936 27.73 61.936 61.936-27.73 61.936-61.936 61.936z"/><path d="M112 167.664c-30.742 0-55.664-24.922-55.664-55.664S81.258 56.336 112 56.336 167.664 81.258 167.664 112 142.742 167.664 112 167.664z"/><path d="M112 174.72c-34.64 0-62.72-28.08-62.72-62.72S77.36 49.28 112 49.28s62.72 28.08 62.72 62.72-28.08 62.72-62.72 62.72z"/><path d="M112 168.448c-31.175 0-56.448-25.273-56.448-56.448S80.825 55.552 112 55.552 168.448 80.825 168.448 112 143.175 168.448 112 168.448z"/><path d="M112 184.128c-39.835 0-72.128-32.293-72.128-72.128S72.165 39.872 112 39.872 184.128 72.165 184.128 112 151.835 184.128 112 184.128z"/><path d="M112 177.856c-36.371 0-65.856-29.485-65.856-65.856 0-36.371 29.485-65.856 65.856-65.856 36.371 0 65.856 29.485 65.856 65.856 0 36.371-29.485 65.856-65.856 65.856z"/><path d="M112 190.4c-43.3 0-78.4-35.1-78.4-78.4 0-43.3 35.1-78.4 78.4-78.4 43.3 0 78.4 35.1 78.4 78.4 0 43.3-35.1 78.4-78.4 78.4z"/><path d="M112 184.128c-39.835 0-72.128-32.293-72.128-72.128S72.165 39.872 112 39.872 184.128 72.165 184.128 112 151.835 184.128 112 184.128z"/><path d="M112 190.4c-43.3 0-78.4-35.1-78.4-78.4 0-43.3 35.1-78.4 78.4-78.4 43.3 0 78.4 35.1 78.4 78.4 0 43.3-35.1 78.4-78.4 78.4z"/><path d="M112 184.128c-39.835 0-72.128-32.293-72.128-72.128S72.165 39.872 112 39.872 184.128 72.165 184.128 112 151.835 184.128 112 184.128z"/><path d="M112 190.4c-43.3 0-78.4-35.1-78.4-78.4 0-43.3 35.1-78.4 78.4-78.4 43.3 0 78.4 35.1 78.4 78.4 0 43.3-35.1 78.4-78.4 78.4z"/><path d="M112 184.128c-39.835 0-72.128-32.293-72.128-72.128S72.165 39.872 112 39.872 184.128 72.165 184.128 112 151.835 184.128 112 184.128z"/><path d="M112 190.4c-43.3 0-78.4-35.1-78.4-78.4 0-43.3 35.1-78.4 78.4-78.4 43.3 0 78.4 35.1 78.4 78.4 0 43.3-35.1 78.4-78.4 78.4z"/><path d="M112 184.128c-39.835 0-72.128-32.293-72.128-72.128S72.165 39.872 112 39.872 184.128 72.165 184.128 112 151.835 184.128 112 184.128z"/><path d="M112 190.4c-43.3 0-78.4-35.1-78.4-78.4 0-43.3 35.1-78.4 78.4-78.4 43.3 0 78.4 35.1 78.4 78.4 0 43.3-35.1 78.4-78.4 78.4z"/><path d="M112 184.128c-39.835 0-72.128-32.293-72.128-72.128S72.165 39.872 112 39.872 184.128 72.165 184.128 112 151.835 184.128 112 184.128z"/><path d="M112 190.4c-43.3 0-78.4-35.1-78.4-78.4 0-43.3 35.1-78.4 78.4-78.4 43.3 0 78.4 35.1 78.4 78.4 0 43.3-35.1 78.4-78.4 78.4z"/><path d="M112 184.128c-39.835 0-72.128-32.293-72.128-72.128S72.165 39.872 112 39.872 184.128 72.165 184.128 112 151.835 184.128 112 184.128z"/><path d="M112 190.4c-43.3 0-78.4-35.1-78.4-78.4 0-43.3 35.1-78.4 78.4-78.4 43.3 0 78.4 35.1 78.4 78.4 0 43.3-35.1 78.4-78.4 78.4z"/><path d="M112 184.128c-39.835 0-72.128-32.293-72.128-72.128S72.165 39.872 112 39.872 184.128 72.165 184.128 112 151.835 184.128 112 184.128z"/><path d="M112 190.4c-43.3 0-78.4-35.1-78.4-78.4 0-43.3 35.1-78.4 78.4-78.4 43.3 0 78.4 35.1 78.4 78.4 0 43.3-35.1 78.4-78.4 78.4z"/><path d="M112 184.128c-39.835 0-72.128-32.293-72.128-72.128S72.165 39.872 112 39.872 184.128 72.165 184.128 112 151.835 184.128 112 184.128z"/><path d="M112 190.4c-43.3 0-78.4-35.1-78.4-78.4 0-43.3 35.1-78.4 78.4-78.4 43.3 0 78.4 35.1 78.4 78.4 0 43.3-35.1 78.4-78.4 78.4z"/><path d="M112 184.128c-39.835 0-72.128-32.293-72.128-72.128S72.165 39.872 112 39.872 184.128 72.165 184.128 112 151.835 184.128 112 184.128z"/><path d="M112 190.4c-43.3 0-78.4-35.1-78.4-78.4 0-43.3 35.1-78.4 78.4-78.4 43.3 0 78.4 35.1 78.4 78.4 0 43.3-35.1 78.4-78.4 78.4z"/><path d="M112 184.128c-39.835 0-72.128-32.293-72.128-72.128S72.165 39.872 112 39.872 184.128 72.165 184.128 112 151.835 184.128 112 184.128z"/><path d="M112 190.4c-43.3 0-78.4-35.1-78.4-78.4 0-43.3 35.1-78.4 78.4-78.4 43.3 0 78.4 35.1 78.4 78.4 0 43.3-35.1 78.4-78.4 78.4z"/><path d="M112 184.128c-39.835 0-72.128-32.293-72.128-72.128S72.165 39.872 112 39.872 184.128 72.165 184.128 112 151.835 184.128 112 184.128z"/><path d="M112 190.4c-43.3 0-78.4-35.1-78.4-78.4 0-43.3 35.1-78.4 78.4-78.4 43.3 0 78.4 35.1 78.4 78.4 0 43.3-35.1 78.4-78.4 78.4z"/><path d="M112 184.128c-39.835 0-72.128-32.293-72.128-72.128S72.165 39.872 112 39.872 184.128 72.165 184.128 112 151.835 184.128 112 184.128z"/><path d="M112 190.4c-43.3 0-78.4-35.1-78.4-78.4 0-43.3 35.1-78.4 78.4-78.4 43.3 0 78.4 35.1 78.4 78.4 0 43.3-35.1 78.4-78.4 78.4z"/><path d="M112 184.128c-39.835 0-72.128-32.293-72.128-72.128S72.165 39.872 112 39.872 184.128 72.165 184.128 112 151.835 184.128 112 184.128z"/><path d="M112 190.4c-43.3 0-78.4-35.1-78.4-78.4 0-43.3 35.1-78.4 78.4-78.4 43.3 0 78.4 35.1 78.4 78.4 0 43.3-35.1 78.4-78.4 78.4z"/><path d="M112 184.128c-39.835 0-72.128-32.293-72.128-72.128S72.165 39.872 112 39.872 184.128 72.165 184.128 112 151.835 184.128 112 184.128z"/><path d="M112 190.4c-43.3 0-78.4-35.1-78.4-78.4 0-43.3 35.1-78.4 78.4-78.4 43.3 0 78.4 35.1 78.4 78.4 0 43.3-35.1 78.4-78.4 78.4z"/><path d="M112 184.128c-39.835 0-72.128-32.293-72.128-72.128S72.165 39.872 112 39.872 184.128 72.165 184.128 112 151.835 184.128 112 184.128z"/><path d="M112 190.4c-43.3 0-78.4-35.1-78.4-78.4 0-43.3 35.1-78.4 78.4-78.4 43.3 0 78.4 35.1 78.4 78.4 0 43.3-35.1 78.4-78.4 78.4z"/><path d="M112 184.128c-39.835 0-72.128-32.293-72.128-72.128S72.165 39.872 112 39.872 184.128 72.165 184.128 112 151.835 184.128 112 184.128z"/><path d="M112 190.4c-43.3 0-78.4-35.1-78.4-78.4 0-43.3 35.1-78.4 78.4-78.4 43.3 0 78.4 35.1 78.4 78.4 0 43.3-35.1 78.4-78.4 78.4z"/><path d="M112 184.128c-39.835 0-72.128-32.293-72.128-72.128S72.165 39.872 112 39.872 184.128 72.165 184.128 112 151.835 184.128 112 184.128z"/><path d="M112 190.4c-43.3 0-78.4-35.1-78.4-78.4 0-43.3 35.1-78.4 78.4-78.4 43.3 0 78.4 35.1 78.4 78.4 0 43.3-35.1 78.4-78.4 78.4z"/><path d="M112 184.128c-39.835 0-72.128-32.293-72.128-72.128S72.165 39.872 112 39.872 184.128 72.165 184.128 112 151.835 184.128 112 184.128z"/><path d="M112 190.4c-43.3 0-78.4-35.1-78.4-78.4 0-43.3 35.1-78.4 78.4-78.4 43.3 0 78.4 35.1 78.4 78.4 0 43.3-35.1 78.4-78.4 78.4z"/><path d="M112 184.128c-39.835 0-72.128-32.293-72.128-72.128S72.165 39.872 112 39.872 184.128 72.165 184.128 112 151.835 184.128 112 184.128z"/><path d="M112 190.4c-43.3 0-78.4-35.1-78.4-78.4 0-43.3 35.1-78.4 78.4-78.4 43.3 0 78.4 35.1 78.4 78.4 0 43.3-35.1 78.4-78.4 78.4z"/><path d="M112 184.128c-39.835 0-72.128-32.293-72.128-72.128S72.165 39.872 112 39.872 184.128 72.165 184.128 112 151.835 184.128 112 184.128z"/><path d="M112 190.4c-43.3 0-78.4-35.1-78.4-78.4 0-43.3 35.1-78.4 78.4-78.4 43.3 0 78.4 35.1 78.4 78.4 0 43.3-35.1 78.4-78.4 78.4z"/><path d="M112 184.128c-39.835 0-72.128-32.293-72.128-72.128S72.165 39.872 112 39.872 184.128 72.165 184.128 112 151.835 184.128 112 184.128z"/><path d="M112 190.4c-43.3 0-78.4-35.1-78.4-78.4 0-43.3 35.1-78.4 78.4-78.4 43.3 0 78.4 35.1 78.4 78.4 0 43.3-35.1 78.4-78.4 78.4z"/><path d="M112 184.128c-39.835 0-72.128-32.293-72.128-72.128S72.165 39.872 112 39.872 184.128 72.165 184.128 112 151.835 184.128 112 184.128z"/><path d="M112 190.4c-43.3 0-78.4-35.1-78.4-78.4 0-43.3 35.1-78.4 78.4-78.4 43.3 0 78.4 35.1 78.4 78.4 0 43.3-35.1 78.4-78.4 78.4z"/><path d="M112 184.128c-39.835 0-72.128-32.293-72.128-72.128S72.165 39.872 112 39.872 184.128 72.165 184.128 112 151.835 184.128 112 184.128z"/><path d="M112 190.4c-43.3 0-78.4-35.1-78.4-78.4 0-43.3 35.1-78.4 78.4-78.4 43.3 0 78.4 35.1 78.4 78.4 0 43.3-35.1 78.4-78.4 78.4z"/><path d="M112 184.128c-39.835 0-72.128-32.293-72.128-72.128S72.165 39.872 112 39.872 184.128 72.165 184.128 112 151.835 184.128 112 184.128z"/><path d="M112 190.4c-43.3 0-78.4-35.1-78.4-78.4 0-43.3 35.1-78.4 78.4-78.4 43.3 0 78.4 35.1 78.4 78.4 0 43.3-35.1 78.4-78.4 78.4z"/><path d="M112 184.128c-39.835 0-72.128-32.293-72.128-72.128S72.165 39.872 112 39.872 184.128 72.165 184.128 112 151.835 184.128 112 184.128z"/><path d="M112 190.4c-43.3 0-78.4-35.1-78.4-78.4 0-43.3 35.1-78.4 78.4-78.4 43.3 0 78.4 35.1 78.4 78.4 0 43.3-35.1 78.4-78.4 78.4z"/><path d="M112 184.128c-39.835 0-72.128-32.293-72.128-72.128S72.165 39.872 112 39.872 184.128 72.165 184.128 112 151.835 184.128 112 184.128z"/><path d="M112 190.4c-43.3 0-78.4-35.1-78.4-78.4 0-43.3 35.1-78.4 78.4-78.4 43.3 0 78.4 35.1 78.4 78.4 0 43.3-35.1 78.4-78.4 78.4z"/><path d="M112 184.128c-39.835 0-72.128-32.293-72.128-72.128S72.165 39.872 112 39.872 184.128 72.165 184.128 112 151.835 184.128 112 184.128z"/><path d="M112 190.4c-43.3 0-78.4-35.1-78.4-78.4 0-43.3 35.1-78.4 78.4-78.4 43.3 0 78.4 35.1 78.4 78.4 0 43.3-35.1 78.4-78.4 78.4z"/><path d="M112 184.128c-39.835 0-72.128-32.293-72.128-72.128S72.165 39.872 112 39.872 184.128 72.165 184.128 112 151.835 184.128 112 184.128z"/><path d="M112 190.4c-43.3 0-78.4-35.1-78.4-78.4 0-43.3 35.1-78.4 78.4-78.4 43.3 0 78.4 35.1 78.4 78.4 0 43.3-35.1 78.4-78.4 78.4z"/><path d="M112 184.128c-39.835 0-72.128-32.293-72.128-72.128S72.165 39.872 112 39.872 184.128 72.165 184.128 112 151.835 184.128 112 184.128z"/><path d="M112 190.4c-43.3 0-78.4-35.1-78.4-78.4 0-43.3 35.1-78.4 78.4-78.4 43.3 0 78.4 35.1 78.4 78.4 0 43.3-35.1 78.4-78.4 78.4z"/><path d="M112 184.128c-39.835 0-72.128-32.293-72.128-72.128S72.165 39.872 112 39.872 184.128 72.165 184.128 112 151.835 184.128 112 184.128z"/><path d="M112 190.4c-43.3 0-78.4-35.1-78.4-78.4 0-43.3 35.1-78.4 78.4-78.4 43.3 0 78.4 35.1 78.4 78.4 0 43.3-35.1 78.4-78.4 78.4z"/><path d="M112 184.128c-39.835 0-72.128-32.293-72.128-72.128S72.165 39.872 112 39.872 184.128 72.165 184.128 112 151.835 184.128 112 184.128z"/><path d="M112 190.4c-43.3 0-78.4-35.1-78.4-78.4 0-43.3 35.1-78.4 78.4-78.4 43.3 0 78.4 35.1 78.4 78.4 0 43.3-35.1 78.4-78.4 78.4z"/><path d="M112 184.128c-39.835 0-72.128-32.293-72.128-72.128S72.165 39.872 112 39.872 184.128 72.165 184.128 112 151.835 184.128 112 184.128z"/><path d="M112 190.4c-43.3 0-78.4-35.1-78.4-78.4 0-43.3 35.1-78.4 78.4-78.4 43.3 0 78.4 35.1 78.4 78.4 0 43.3-35.1 78.4-78.4 78.4z"/><path d="M112 184.128c-39.835 0-72.128-32.293-72.128-72.128S72.165 39.872 112 39.872 184.128 72.165 184.128 112 151.835 184.128 112 184.128z"/><path d="M112 190.4c-43.3 0-78.4-35.1-78.4-78.4 0-43.3 35.1-78.4 78.4-78.4 43.3 0 78.4 35.1 78.4 78.4 0 43.3-35.1 78.4-78.4 78.4z"/><path d="M112 184.128c-39.835 0-72.128-32.293-72.128-72.128S72.165 39.872 112 39.872 184.128 72.165 184.128 112 151.835 184.128 112 184.128z"/><path d="M112 190.4c-43.3 0-78.4-35.1-78.4-78.4 0-43.3 35.1-78.4 78.4-78.4 43.3 0 78.4 35.1 78.4 78.4 0 43.3-35.1 78.4-78.4 78.4z"/><path d="M112 184.128c-39.835 0-72.128-32.293-72.128-72.128S72.165 39.872 112 39.872 184.128 72.165 184.128 112 151.835 184.128 112 184.128z"/><path d="M112 190.4c-43.3 0-78.4-35.1-78.4-78.4 0-43.3 35.1-78.4 78.4-78.4 43.3 0 78.4 35.1 78.4 78.4 0 43.3-35.1 78.4-78.4 78.4z"/><path d="M112 184.128c-39.835 0-72.128-32.293-72.128-72.128S72.165 39.872 112 39.872 184.128 72.165 184.128 112 151.835 184.128 112 184.128z"/><path d="M112 190.4c-43.3 0-78.4-35.1-78.4-78.4 0-43.3 35.1-78.4 78.4-78.4 43.3 0 78.4 35.1 78.4 78.4 0 43.3-35.1 78.4-78.4 78.4z"/><path d="M112 184.128c-39.835 0-72.128-32.293-72.128-72.128S72.165 39.872 112 39.872 184.128 72.165 184.128 112 151.835 184.128 112 184.128z"/></g></svg>