<?xml version="1.0"?>
<svg xmlns="http://www.w3.org/2000/svg" xmlns:xlink="http://www.w3.org/1999/xlink" version="1.1" viewBox="0 0 224 224" width="24px" height="24px"><g transform="translate(33.6,33.6) scale(0.7,0.7)"><g fill="none" fill-rule="nonzero" stroke="none" stroke-width="1" stroke-linecap="butt" stroke-linejoin="miter" stroke-miterlimit="10" stroke-dasharray="" stroke-dashoffset="0" font-family="none" font-weight="none" font-size="none" text-anchor="none" style="mix-blend-mode: normal"><path d="M0,224v-224h224v224z" fill="none"/><path d="M0,112c0,-61.85589 50.14411,-112 112,-112c61.85589,0 112,50.14411 112,112c0,61.85589 -50.14411,112 -112,112c-61.85589,0 -112,-50.14411 -112,-112zM112,215.04c56.90742,0 103.04,-46.13258 103.04,-103.04c0,-56.90742 -46.13258,-103.04 -103.04,-103.04c-56.90742,0 -103.04,46.13258 -103.04,103.04c0,56.90742 46.13258,103.04 103.04,103.04z" fill="#000000"/><g fill="#151926"><path d="M58.0423,70.0329c-2.16212,-0.03058 -4.17322,1.10539 -5.2632,2.97291c-1.08998,1.86752 -1.08998,4.17727 0,6.04479c1.08998,1.86752 3.10108,3.00348 5.2632,2.97291h107.91541c2.16212,0.03058 4.17322,-1.10539 5.2632,-2.97291c1.08998,-1.86752 1.08998,-4.17727 0,-6.04479c-1.08998,-1.86752 -3.10108,-3.00348 -5.2632,-2.97291zM58.0423,106.0047c-2.16212,-0.03058 -4.17322,1.10539 -5.2632,2.97291c-1.08998,1.86752 -1.08998,4.17727 0,6.04479c1.08998,1.86752 3.10108,3.00348 5.2632,2.97291h107.91541c2.16212,0.03058 4.17322,-1.10539 5.2632,-2.97291c1.08998,-1.86752 1.08998,-4.17727 0,-6.04479c-1.08998,-1.86752 -3.10108,-3.00348 -5.2632,-2.97291zM58.0423,141.9765c-2.16212,-0.03058 -4.17322,1.10539 -5.2632,2.97291c-1.08998,1.86752 -1.08998,4.17727 0,6.04479c1.08998,1.86752 3.10108,3.00348 5.2632,2.97291h107.91541c2.16212,0.03058 4.17322,-1.10539 5.2632,-2.97291c1.08998,-1.86752 1.08998,-4.17727 0,-6.04479c-1.08998,-1.86752 -3.10108,-3.00348 -5.2632,-2.97291z"/></g><path d="M112,224c-61.85589,0 -112,-50.14411 -112,-112v0c0,-61.85589 50.14411,-112 112,-112h0c61.85589,0 112,50.14411 112,112v0c0,61.85589 -50.14411,112 -112,112z" fill="none"/><path d="M112,219.52c-59.38166,0 -107.52,-48.13834 -107.52,-107.52v0c0,-59.38166 48.13834,-107.52 107.52,-107.52v0c59.38166,0 107.52,48.13834 107.52,107.52v0c0,59.38166 -48.13834,107.52 -107.52,107.52z" fill="none"/><path d="M112,224c-61.85589,0 -112,-50.14411 -112,-112v0c0,-61.85589 50.14411,-112 112,-112h0c61.85589,0 112,50.14411 112,112v0c0,61.85589 -50.14411,112 -112,112z" fill="none"/><path d="M112,215.04c-56.90742,0 -103.04,-46.13258 -103.04,-103.04v0c0,-56.90742 46.13258,-103.04 103.04,-103.04h0c56.90742,0 103.04,46.13258 103.04,103.04v0c0,56.90742 -46.13258,103.04 -103.04,103.04z" fill="none"/><path d="M112,224c-61.85589,0 -112,-50.14411 -112,-112v0c0,-61.85589 50.14411,-112 112,-112h0c61.85589,0 112,50.14411 112,112v0c0,61.85589 -50.14411,112 -112,112z" fill="none"/><path d="M112,210.56c-54.43318,0 -98.56,-44.12682 -98.56,-98.56v0c0,-54.43318 44.12682,-98.56 98.56,-98.56h0c54.43318,0 98.56,44.12682 98.56,98.56v0c0,54.43318 -44.12682,98.56 -98.56,98.56z" fill="none"/><path d="M112,224c-61.85589,0 -112,-50.14411 -112,-112v0c0,-61.85589 50.14411,-112 112,-112h0c61.85589,0 112,50.14411 112,112v0c0,61.85589 -50.14411,112 -112,112z" fill="none"/><path d="M112,206.08c-51.95895,0 -94.08,-42.12105 -94.08,-94.08v0c0,-51.95895 42.12105,-94.08 94.08,-94.08v0c51.95895,0 94.08,42.12105 94.08,94.08v0c0,51.95895 -42.12105,94.08 -94.08,94.08z" fill="none"/><path d="M112,224c-61.85589,0 -112,-50.14411 -112,-112v0c0,-61.85589 50.14411,-112 112,-112h0c61.85589,0 112,50.14411 112,112v0c0,61.85589 -50.14411,112 -112,112z" fill="none"/><path d="M112,201.6c-49.48471,0 -89.6,-40.11529 -89.6,-89.6v0c0,-49.48471 40.11529,-89.6 89.6,-89.6h0c49.48471,0 89.6,40.11529 89.6,89.6v0c0,49.48471 -40.11529,89.6 -89.6,89.6z" fill="none"/><path d="M112,224c-61.85589,0 -112,-50.14411 -112,-112v0c0,-61.85589 50.14411,-112 112,-112h0c61.85589,0 112,50.14411 112,112v0c0,61.85589 -50.14411,112 -112,112z" fill="none"/><path d="M112,197.12c-47.01048,0 -85.12,-38.10952 -85.12,-85.12v0c0,-47.01048 38.10952,-85.12 85.12,-85.12h0c47.01048,0 85.12,38.10952 85.12,85.12v0c0,47.01048 -38.10952,85.12 -85.12,85.12z" fill="none"/><path d="M112,224c-61.85589,0 -112,-50.14411 -112,-112v0c0,-61.85589 50.14411,-112 112,-112h0c61.85589,0 112,50.14411 112,112v0c0,61.85589 -50.14411,112 -112,112z" fill="none"/><path d="M112,192.64c-44.53624,0 -80.64,-36.10376 -80.64,-80.64v0c0,-44.53624 36.10376,-80.64 80.64,-80.64v0c44.53624,0 80.64,36.10376 80.64,80.64v0c0,44.53624 -36.10376,80.64 -80.64,80.64z" fill="none"/><path d="M112,224c-61.85589,0 -112,-50.14411 -112,-112v0c0,-61.85589 50.14411,-112 112,-112h0c61.85589,0 112,50.14411 112,112v0c0,61.85589 -50.14411,112 -112,112z" fill="none"/><path d="M112,188.16c-42.06201,0 -76.16,-34.09799 -76.16,-76.16v0c0,-42.06201 34.09799,-76.16 76.16,-76.16h0c42.06201,0 76.16,34.09799 76.16,76.16v0c0,42.06201 -34.09799,76.16 -76.16,76.16z" fill="none"/><path d="M112,224c-61.85589,0 -112,-50.14411 -112,-112v0c0,-61.85589 50.14411,-112 112,-112h0c61.85589,0 112,50.14411 112,112v0c0,61.85589 -50.14411,112 -112,112z" fill="none"/><path d="M112,192.64c-44.53624,0 -80.64,-36.10376 -80.64,-80.64v0c0,-44.53624 36.10376,-80.64 80.64,-80.64v0c44.53624,0 80.64,36.10376 80.64,80.64v0c0,44.53624 -36.10376,80.64 -80.64,80.64z" fill="none"/><path d="M112,224c-61.85589,0 -112,-50.14411 -112,-112v0c0,-61.85589 50.14411,-112 112,-112h0c61.85589,0 112,50.14411 112,112v0c0,61.85589 -50.14411,112 -112,112z" fill="none"/><path d="M112,197.12c-47.01048,0 -85.12,-38.10952 -85.12,-85.12v0c0,-47.01048 38.10952,-85.12 85.12,-85.12h0c47.01048,0 85.12,38.10952 85.12,85.12v0c0,47.01048 -38.10952,85.12 -85.12,85.12z" fill="none"/><path d="M112,224c-61.85589,0 -112,-50.14411 -112,-112v0c0,-61.85589 50.14411,-112 112,-112h0c61.85589,0 112,50.14411 112,112v0c0,61.85589 -50.14411,112 -112,112z" fill="none"/><path d="M112,201.6c-49.48471,0 -89.6,-40.11529 -89.6,-89.6v0c0,-49.48471 40.11529,-89.6 89.6,-89.6h0c49.48471,0 89.6,40.11529 89.6,89.6v0c0,49.48471 -40.11529,89.6 -89.6,89.6z" fill="none"/><path d="M112,224c-61.85589,0 -112,-50.14411 -112,-112v0c0,-61.85589 50.14411,-112 112,-112h0c61.85589,0 112,50.14411 112,112v0c0,61.85589 -50.14411,112 -112,112z" fill="none"/><path d="M112,206.08c-51.95895,0 -94.08,-42.12105 -94.08,-94.08v0c0,-51.95895 42.12105,-94.08 94.08,-94.08v0c51.95895,0 94.08,42.12105 94.08,94.08v0c0,51.95895 -42.12105,94.08 -94.08,94.08z" fill="none"/><path d="M112,224c-61.85589,0 -112,-50.14411 -112,-112v0c0,-61.85589 50.14411,-112 112,-112h0c61.85589,0 112,50.14411 112,112v0c0,61.85589 -50.14411,112 -112,112z" fill="none"/><path d="M112,210.56c-54.43318,0 -98.56,-44.12682 -98.56,-98.56v0c0,-54.43318 44.12682,-98.56 98.56,-98.56h0c54.43318,0 98.56,44.12682 98.56,98.56v0c0,54.43318 -44.12682,98.56 -98.56,98.56z" fill="none"/><path d="M112,224c-61.85589,0 -112,-50.14411 -112,-112v0c0,-61.85589 50.14411,-112 112,-112h0c61.85589,0 112,50.14411 112,112v0c0,61.85589 -50.14411,112 -112,112z" fill="none"/><path d="M112,215.04c-56.90742,0 -103.04,-46.13258 -103.04,-103.04v0c0,-56.90742 46.13258,-103.04 103.04,-103.04h0c56.90742,0 103.04,46.13258 103.04,103.04v0c0,56.90742 -46.13258,103.04 -103.04,103.04z" fill="none"/><path d="M112,221.76c-60.61877,0 -109.76,-49.14123 -109.76,-109.76v0c0,-60.61877 49.14123,-109.76 109.76,-109.76v0c60.61877,0 109.76,49.14123 109.76,109.76v0c0,60.61877 -49.14123,109.76 -109.76,109.76z" fill="none"/><path d="M112,212.8c-55.6703,0 -100.8,-45.1297 -100.8,-100.8v0c0,-55.6703 45.1297,-100.8 100.8,-100.8h0c55.6703,0 100.8,45.1297 100.8,100.8v0c0,55.6703 -45.1297,100.8 -100.8,100.8z" fill="none"/><path d="M112,218.4c-58.7631,0 -106.4,-47.6369 -106.4,-106.4v0c0,-58.7631 47.6369,-106.4 106.4,-106.4h0c58.7631,0 106.4,47.6369 106.4,106.4v0c0,58.7631 -47.6369,106.4 -106.4,106.4z" fill="none"/><path d="M112,209.44c-53.81463,0 -97.44,-43.62537 -97.44,-97.44v0c0,-53.81463 43.62537,-97.44 97.44,-97.44h0c53.81463,0 97.44,43.62537 97.44,97.44v0c0,53.81463 -43.62537,97.44 -97.44,97.44z" fill="none"/><path d="M112,217.28c-58.14454,0 -105.28,-47.13546 -105.28,-105.28v0c0,-58.14454 47.13546,-105.28 105.28,-105.28h0c58.14454,0 105.28,47.13546 105.28,105.28v0c0,58.14454 -47.13546,105.28 -105.28,105.28z" fill="none"/><path d="M112,208.32c-53.19607,0 -96.32,-43.12393 -96.32,-96.32v0c0,-53.19607 43.12393,-96.32 96.32,-96.32h0c53.19607,0 96.32,43.12393 96.32,96.32v0c0,53.19607 -43.12393,96.32 -96.32,96.32z" fill="none"/><path d="M112,216.16c-57.52598,0 -104.16,-46.63402 -104.16,-104.16v0c0,-57.52598 46.63402,-104.16 104.16,-104.16h0c57.52598,0 104.16,46.63402 104.16,104.16v0c0,57.52598 -46.63402,104.16 -104.16,104.16z" fill="none"/><path d="M112,207.2c-52.57751,0 -95.2,-42.62249 -95.2,-95.2v0c0,-52.57751 42.62249,-95.2 95.2,-95.2h0c52.57751,0 95.2,42.62249 95.2,95.2v0c0,52.57751 -42.62249,95.2 -95.2,95.2z" fill="none"/><path d="M112,213.92c-56.28886,0 -101.92,-45.63114 -101.92,-101.92v0c0,-56.28886 45.63114,-101.92 101.92,-101.92v0c56.28886,0 101.92,45.63114 101.92,101.92v0c0,56.28886 -45.63114,101.92 -101.92,101.92z" fill="none"/><path d="M112,204.96c-51.34039,0 -92.96,-41.61961 -92.96,-92.96v0c0,-51.34039 41.61961,-92.96 92.96,-92.96h0c51.34039,0 92.96,41.61961 92.96,92.96v0c0,51.34039 -41.61961,92.96 -92.96,92.96z" fill="none"/><path d="M112,210.56c-54.43318,0 -98.56,-44.12682 -98.56,-98.56v0c0,-54.43318 44.12682,-98.56 98.56,-98.56h0c54.43318,0 98.56,44.12682 98.56,98.56v0c0,54.43318 -44.12682,98.56 -98.56,98.56z" fill="none"/><path d="M112,201.6c-49.48471,0 -89.6,-40.11529 -89.6,-89.6v0c0,-49.48471 40.11529,-89.6 89.6,-89.6h0c49.48471,0 89.6,40.11529 89.6,89.6v0c0,49.48471 -40.11529,89.6 -89.6,89.6z" fill="none"/><path d="M112,209.44c-53.81463,0 -97.44,-43.62537 -97.44,-97.44v0c0,-53.81463 43.62537,-97.44 97.44,-97.44h0c53.81463,0 97.44,43.62537 97.44,97.44v0c0,53.81463 -43.62537,97.44 -97.44,97.44z" fill="none"/><path d="M112,200.48c-48.86615,0 -88.48,-39.61385 -88.48,-88.48v0c0,-48.86615 39.61385,-88.48 88.48,-88.48h0c48.86615,0 88.48,39.61385 88.48,88.48v0c0,48.86615 -39.61385,88.48 -88.48,88.48z" fill="none"/><path d="M112,207.2c-52.57751,0 -95.2,-42.62249 -95.2,-95.2v0c0,-52.57751 42.62249,-95.2 95.2,-95.2v0c52.57751,0 95.2,42.62249 95.2,95.2v0c0,52.57751 -42.62249,95.2 -95.2,95.2z" fill="none"/><path d="M112,198.24c-47.62904,0 -86.24,-38.61096 -86.24,-86.24v0c0,-47.62904 38.61096,-86.24 86.24,-86.24h0c47.62904,0 86.24,38.61096 86.24,86.24v0c0,47.62904 -38.61096,86.24 -86.24,86.24z" fill="none"/><path d="M112,206.08c-51.95895,0 -94.08,-42.12105 -94.08,-94.08v0c0,-51.95895 42.12105,-94.08 94.08,-94.08v0c51.95895,0 94.08,42.12105 94.08,94.08v0c0,51.95895 -42.12105,94.08 -94.08,94.08z" fill="none"/><path d="M112,197.12c-47.01048,0 -85.12,-38.10952 -85.12,-85.12v0c0,-47.01048 38.10952,-85.12 85.12,-85.12h0c47.01048,0 85.12,38.10952 85.12,85.12v0c0,47.01048 -38.10952,85.12 -85.12,85.12z" fill="none"/><path d="M112,204.96c-51.34039,0 -92.96,-41.61961 -92.96,-92.96v0c0,-51.34039 41.61961,-92.96 92.96,-92.96v0c51.34039,0 92.96,41.61961 92.96,92.96v0c0,51.34039 -41.61961,92.96 -92.96,92.96z" fill="none"/><path d="M112,196c-46.39192,0 -84,-37.60808 -84,-84v0c0,-46.39192 37.60808,-84 84,-84h0c46.39192,0 84,37.60808 84,84v0c0,46.39192 -37.60808,84 -84,84z" fill="none"/><path d="M112,203.84c-50.72183,0 -91.84,-41.11817 -91.84,-91.84v0c0,-50.72183 41.11817,-91.84 91.84,-91.84h0c50.72183,0 91.84,41.11817 91.84,91.84v0c0,50.72183 -41.11817,91.84 -91.84,91.84z" fill="none"/><path d="M112,194.88c-45.77336,0 -82.88,-37.10664 -82.88,-82.88v0c0,-45.77336 37.10664,-82.88 82.88,-82.88h0c45.77336,0 82.88,37.10664 82.88,82.88v0c0,45.77336 -37.10664,82.88 -82.88,82.88z" fill="none"/><path d="M112,202.72c-50.10327,0 -90.72,-40.61673 -90.72,-90.72v0c0,-50.10327 40.61673,-90.72 90.72,-90.72h0c50.10327,0 90.72,40.61673 90.72,90.72v0c0,50.10327 -40.61673,90.72 -90.72,90.72z" fill="none"/><path d="M112,193.76c-45.1548,0 -81.76,-36.6052 -81.76,-81.76v0c0,-45.1548 36.6052,-81.76 81.76,-81.76h0c45.1548,0 81.76,36.6052 81.76,81.76v0c0,45.1548 -36.6052,81.76 -81.76,81.76z" fill="none"/><path d="M112,201.6c-49.48471,0 -89.6,-40.11529 -89.6,-89.6v0c0,-49.48471 40.11529,-89.6 89.6,-89.6h0c49.48471,0 89.6,40.11529 89.6,89.6v0c0,49.48471 -40.11529,89.6 -89.6,89.6z" fill="none"/><path d="M112,192.64c-44.53624,0 -80.64,-36.10376 -80.64,-80.64v0c0,-44.53624 36.10376,-80.64 80.64,-80.64h0c44.53624,0 80.64,36.10376 80.64,80.64v0c0,44.53624 -36.10376,80.64 -80.64,80.64z" fill="none"/><path d="M112,200.48c-48.86615,0 -88.48,-39.61385 -88.48,-88.48v0c0,-48.86615 39.61385,-88.48 88.48,-88.48v0c48.86615,0 88.48,39.61385 88.48,88.48v0c0,48.86615 -39.61385,88.48 -88.48,88.48z" fill="none"/><path d="M112,191.52c-43.91768,0 -79.52,-35.60232 -79.52,-79.52v0c0,-43.91768 35.60232,-79.52 79.52,-79.52h0c43.91768,0 79.52,35.60232 79.52,79.52v0c0,43.91768 -35.60232,79.52 -79.52,79.52z" fill="none"/><path d="M112,201.6c-49.48471,0 -89.6,-40.11529 -89.6,-89.6v0c0,-49.48471 40.11529,-89.6 89.6,-89.6h0c49.48471,0 89.6,40.11529 89.6,89.6v0c0,49.48471 -40.11529,89.6 -89.6,89.6z" fill="none"/><path d="M112,192.64c-44.53624,0 -80.64,-36.10376 -80.64,-80.64v0c0,-44.53624 36.10376,-80.64 80.64,-80.64h0c44.53624,0 80.64,36.10376 80.64,80.64v0c0,44.53624 -36.10376,80.64 -80.64,80.64z" fill="none"/><path d="M112,215.04c-56.90742,0 -103.04,-46.13258 -103.04,-103.04v0c0,-56.90742 46.13258,-103.04 103.04,-103.04v0c56.90742,0 103.04,46.13258 103.04,103.04v0c0,56.90742 -46.13258,103.04 -103.04,103.04z" fill="none"/><path d="M112,206.08c-51.95895,0 -94.08,-42.12105 -94.08,-94.08v0c0,-51.95895 42.12105,-94.08 94.08,-94.08h0c51.95895,0 94.08,42.12105 94.08,94.08v0c0,51.95895 -42.12105,94.08 -94.08,94.08z" fill="none"/><path d="M112,224c-61.85589,0 -112,-50.14411 -112,-112v0c0,-61.85589 50.14411,-112 112,-112h0c61.85589,0 112,50.14411 112,112v0c0,61.85589 -50.14411,112 -112,112z" fill="none"/><path d="M112,215.04c-56.90742,0 -103.04,-46.13258 -103.04,-103.04v0c0,-56.90742 46.13258,-103.04 103.04,-103.04h0c56.90742,0 103.04,46.13258 103.04,103.04v0c0,56.90742 -46.13258,103.04 -103.04,103.04z" fill="none"/><path d="M112,224c-61.85589,0 -112,-50.14411 -112,-112v0c0,-61.85589 50.14411,-112 112,-112h0c61.85589,0 112,50.14411 112,112v0c0,61.85589 -50.14411,112 -112,112z" fill="none"/><path d="M112,215.04c-56.90742,0 -103.04,-46.13258 -103.04,-103.04v0c0,-56.90742 46.13258,-103.04 103.04,-103.04h0c56.90742,0 103.04,46.13258 103.04,103.04v0c0,56.90742 -46.13258,103.04 -103.04,103.04z" fill="none"/><path d="M112,224c-61.85589,0 -112,-50.14411 -112,-112v0c0,-61.85589 50.14411,-112 112,-112h0c61.85589,0 112,50.14411 112,112v0c0,61.85589 -50.14411,112 -112,112z" fill="none"/><path d="M112,215.04c-56.90742,0 -103.04,-46.13258 -103.04,-103.04v0c0,-56.90742 46.13258,-103.04 103.04,-103.04h0c56.90742,0 103.04,46.13258 103.04,103.04v0c0,56.90742 -46.13258,103.04 -103.04,103.04z" fill="none"/><path d="M112,224c-61.85589,0 -112,-50.14411 -112,-112v0c0,-61.85589 50.14411,-112 112,-112h0c61.85589,0 112,50.14411 112,112v0c0,61.85589 -50.14411,112 -112,112z" fill="none"/><path d="M112,215.04c-56.90742,0 -103.04,-46.13258 -103.04,-103.04v0c0,-56.90742 46.13258,-103.04 103.04,-103.04h0c56.90742,0 103.04,46.13258 103.04,103.04v0c0,56.90742 -46.13258,103.04 -103.04,103.04z" fill="none"/><path d="M112,224c-61.85589,0 -112,-50.14411 -112,-112v0c0,-61.85589 50.14411,-112 112,-112h0c61.85589,0 112,50.14411 112,112v0c0,61.85589 -50.14411,112 -112,112z" fill="none"/><path d="M112,215.04c-56.90742,0 -103.04,-46.13258 -103.04,-103.04v0c0,-56.90742 46.13258,-103.04 103.04,-103.04h0c56.90742,0 103.04,46.13258 103.04,103.04v0c0,56.90742 -46.13258,103.04 -103.04,103.04z" fill="none"/><path d="M112,224c-61.85589,0 -112,-50.14411 -112,-112v0c0,-61.85589 50.14411,-112 112,-112h0c61.85589,0 112,50.14411 112,112v0c0,61.85589 -50.14411,112 -112,112z" fill="none"/><path d="M112,215.04c-56.90742,0 -103.04,-46.13258 -103.04,-103.04v0c0,-56.90742 46.13258,-103.04 103.04,-103.04h0c56.90742,0 103.04,46.13258 103.04,103.04v0c0,56.90742 -46.13258,103.04 -103.04,103.04z" fill="none"/><path d="M112,224c-61.85589,0 -112,-50.14411 -112,-112v0c0,-61.85589 50.14411,-112 112,-112h0c61.85589,0 112,50.14411 112,112v0c0,61.85589 -50.14411,112 -112,112z" fill="none"/><path d="M112,215.04c-56.90742,0 -103.04,-46.13258 -103.04,-103.04v0c0,-56.90742 46.13258,-103.04 103.04,-103.04h0c56.90742,0 103.04,46.13258 103.04,103.04v0c0,56.90742 -46.13258,103.04 -103.04,103.04z" fill="none"/><path d="M112,224c-61.85589,0 -112,-50.14411 -112,-112v0c0,-61.85589 50.14411,-112 112,-112h0c61.85589,0 112,50.14411 112,112v0c0,61.85589 -50.14411,112 -112,112z" fill="none"/><path d="M112,215.04c-56.90742,0 -103.04,-46.13258 -103.04,-103.04v0c0,-56.90742 46.13258,-103.04 103.04,-103.04h0c56.90742,0 103.04,46.13258 103.04,103.04v0c0,56.90742 -46.13258,103.04 -103.04,103.04z" fill="none"/><path d="M112,224c-61.85589,0 -112,-50.14411 -112,-112v0c0,-61.85589 50.14411,-112 112,-112h0c61.85589,0 112,50.14411 112,112v0c0,61.85589 -50.14411,112 -112,112z" fill="none"/><path d="M112,215.04c-56.90742,0 -103.04,-46.13258 -103.04,-103.04v0c0,-56.90742 46.13258,-103.04 103.04,-103.04h0c56.90742,0 103.04,46.13258 103.04,103.04v0c0,56.90742 -46.13258,103.04 -103.04,103.04z" fill="none"/><path d="M112,224c-61.85589,0 -112,-50.14411 -112,-112v0c0,-61.85589 50.14411,-112 112,-112h0c61.85589,0 112,50.14411 112,112v0c0,61.85589 -50.14411,112 -112,112z" fill="none"/><path d="M112,215.04c-56.90742,0 -103.04,-46.13258 -103.04,-103.04v0c0,-56.90742 46.13258,-103.04 103.04,-103.04h0c56.90742,0 103.04,46.13258 103.04,103.04v0c0,56.90742 -46.13258,103.04 -103.04,103.04z" fill="none"/><path d="M112,224c-61.85589,0 -112,-50.14411 -112,-112v0c0,-61.85589 50.14411,-112 112,-112h0c61.85589,0 112,50.14411 112,112v0c0,61.85589 -50.14411,112 -112,112z" fill="none"/><path d="M112,215.04c-56.90742,0 -103.04,-46.13258 -103.04,-103.04v0c0,-56.90742 46.13258,-103.04 103.04,-103.04h0c56.90742,0 103.04,46.13258 103.04,103.04v0c0,56.90742 -46.13258,103.04 -103.04,103.04z" fill="none"/><path d="M112,224c-61.85589,0 -112,-50.14411 -112,-112v0c0,-61.85589 50.14411,-112 112,-112h0c61.85589,0 112,50.14411 112,112v0c0,61.85589 -50.14411,112 -112,112z" fill="none"/><path d="M112,215.04c-56.90742,0 -103.04,-46.13258 -103.04,-103.04v0c0,-56.90742 46.13258,-103.04 103.04,-103.04h0c56.90742,0 103.04,46.13258 103.04,103.04v0c0,56.90742 -46.13258,103.04 -103.04,103.04z" fill="none"/><path d="M112,224c-61.85589,0 -112,-50.14411 -112,-112v0c0,-61.85589 50.14411,-112 112,-112h0c61.85589,0 112,50.14411 112,112v0c0,61.85589 -50.14411,112 -112,112z" fill="none"/><path d="M112,215.04c-56.90742,0 -103.04,-46.13258 -103.04,-103.04v0c0,-56.90742 46.13258,-103.04 103.04,-103.04h0c56.90742,0 103.04,46.13258 103.04,103.04v0c0,56.90742 -46.13258,103.04 -103.04,103.04z" fill="none"/><path d="M112,224c-61.85589,0 -112,-50.14411 -112,-112v0c0,-61.85589 50.14411,-112 112,-112h0c61.85589,0 112,50.14411 112,112v0c0,61.85589 -50.14411,112 -112,112z" fill="none"/><path d="M112,215.04c-56.90742,0 -103.04,-46.13258 -103.04,-103.04v0c0,-56.90742 46.13258,-103.04 103.04,-103.04h0c56.90742,0 103.04,46.13258 103.04,103.04v0c0,56.90742 -46.13258,103.04 -103.04,103.04z" fill="none"/><path d="M112,224c-61.85589,0 -112,-50.14411 -112,-112v0c0,-61.85589 50.14411,-112 112,-112h0c61.85589,0 112,50.14411 112,112v0c0,61.85589 -50.14411,112 -112,112z" fill="none"/><path d="M112,215.04c-56.90742,0 -103.04,-46.13258 -103.04,-103.04v0c0,-56.90742 46.13258,-103.04 103.04,-103.04h0c56.90742,0 103.04,46.13258 103.04,103.04v0c0,56.90742 -46.13258,103.04 -103.04,103.04z" fill="none"/><path d="M112,224c-61.85589,0 -112,-50.14411 -112,-112v0c0,-61.85589 50.14411,-112 112,-112h0c61.85589,0 112,50.14411 112,112v0c0,61.85589 -50.14411,112 -112,112z" fill="none"/><path d="M112,215.04c-56.90742,0 -103.04,-46.13258 -103.04,-103.04v0c0,-56.90742 46.13258,-103.04 103.04,-103.04h0c56.90742,0 103.04,46.13258 103.04,103.04v0c0,56.90742 -46.13258,103.04 -103.04,103.04z" fill="none"/><path d="M112,224c-61.85589,0 -112,-50.14411 -112,-112v0c0,-61.85589 50.14411,-112 112,-112h0c61.85589,0 112,50.14411 112,112v0c0,61.85589 -50.14411,112 -112,112z" fill="none"/><path d="M112,215.04c-56.90742,0 -103.04,-46.13258 -103.04,-103.04v0c0,-56.90742 46.13258,-103.04 103.04,-103.04h0c56.90742,0 103.04,46.13258 103.04,103.04v0c0,56.90742 -46.13258,103.04 -103.04,103.04z" fill="none"/><path d="M112,224c-61.85589,0 -112,-50.14411 -112,-112v0c0,-61.85589 50.14411,-112 112,-112h0c61.85589,0 112,50.14411 112,112v0c0,61.85589 -50.14411,112 -112,112z" fill="none"/><path d="M112,215.04c-56.90742,0 -103.04,-46.13258 -103.04,-103.04v0c0,-56.90742 46.13258,-103.04 103.04,-103.04h0c56.90742,0 103.04,46.13258 103.04,103.04v0c0,56.90742 -46.13258,103.04 -103.04,103.04z" fill="none"/><path d="M112,224c-61.85589,0 -112,-50.14411 -112,-112v0c0,-61.85589 50.14411,-112 112,-112h0c61.85589,0 112,50.14411 112,112v0c0,61.85589 -50.14411,112 -112,112z" fill="none"/><path d="M112,215.04c-56.90742,0 -103.04,-46.13258 -103.04,-103.04v0c0,-56.90742 46.13258,-103.04 103.04,-103.04h0c56.90742,0 103.04,46.13258 103.04,103.04v0c0,56.90742 -46.13258,103.04 -103.04,103.04z" fill="none"/><path d="M112,224c-61.85589,0 -112,-50.14411 -112,-112v0c0,-61.85589 50.14411,-112 112,-112h0c61.85589,0 112,50.14411 112,112v0c0,61.85589 -50.14411,112 -112,112z" fill="none"/><path d="M112,215.04c-56.90742,0 -103.04,-46.13258 -103.04,-103.04v0c0,-56.90742 46.13258,-103.04 103.04,-103.04h0c56.90742,0 103.04,46.13258 103.04,103.04v0c0,56.90742 -46.13258,103.04 -103.04,103.04z" fill="none"/><path d="M112,224c-61.85589,0 -112,-50.14411 -112,-112v0c0,-61.85589 50.14411,-112 112,-112h0c61.85589,0 112,50.14411 112,112v0c0,61.85589 -50.14411,112 -112,112z" fill="none"/><path d="M112,215.04c-56.90742,0 -103.04,-46.13258 -103.04,-103.04v0c0,-56.90742 46.13258,-103.04 103.04,-103.04h0c56.90742,0 103.04,46.13258 103.04,103.04v0c0,56.90742 -46.13258,103.04 -103.04,103.04z" fill="none"/><path d="M112,224c-61.85589,0 -112,-50.14411 -112,-112v0c0,-61.85589 50.14411,-112 112,-112h0c61.85589,0 112,50.14411 112,112v0c0,61.85589 -50.14411,112 -112,112z" fill="none"/><path d="M112,215.04c-56.90742,0 -103.04,-46.13258 -103.04,-103.04v0c0,-56.90742 46.13258,-103.04 103.04,-103.04h0c56.90742,0 103.04,46.13258 103.04,103.04v0c0,56.90742 -46.13258,103.04 -103.04,103.04z" fill="none"/><path d="M112,224c-61.85589,0 -112,-50.14411 -112,-112v0c0,-61.85589 50.14411,-112 112,-112h0c61.85589,0 112,50.14411 112,112v0c0,61.85589 -50.14411,112 -112,112z" fill="none"/><path d="M112,215.04c-56.90742,0 -103.04,-46.13258 -103.04,-103.04v0c0,-56.90742 46.13258,-103.04 103.04,-103.04h0c56.90742,0 103.04,46.13258 103.04,103.04v0c0,56.90742 -46.13258,103.04 -103.04,103.04z" fill="none"/><path d="M112,224c-61.85589,0 -112,-50.14411 -112,-112v0c0,-61.85589 50.14411,-112 112,-112h0c61.85589,0 112,50.14411 112,112v0c0,61.85589 -50.14411,112 -112,112z" fill="none"/><path d="M112,215.04c-56.90742,0 -103.04,-46.13258 -103.04,-103.04v0c0,-56.90742 46.13258,-103.04 103.04,-103.04h0c56.90742,0 103.04,46.13258 103.04,103.04v0c0,56.90742 -46.13258,103.04 -103.04,103.04z" fill="none"/><path d="M112,224c-61.85589,0 -112,-50.14411 -112,-112v0c0,-61.85589 50.14411,-112 112,-112h0c61.85589,0 112,50.14411 112,112v0c0,61.85589 -50.14411,112 -112,112z" fill="none"/><path d="M112,215.04c-56.90742,0 -103.04,-46.13258 -103.04,-103.04v0c0,-56.90742 46.13258,-103.04 103.04,-103.04h0c56.90742,0 103.04,46.13258 103.04,103.04v0c0,56.90742 -46.13258,103.04 -103.04,103.04z" fill="none"/><path d="M112,224c-61.85589,0 -112,-50.14411 -112,-112v0c0,-61.85589 50.14411,-112 112,-112h0c61.85589,0 112,50.14411 112,112v0c0,61.85589 -50.14411,112 -112,112z" fill="none"/><path d="M112,215.04c-56.90742,0 -103.04,-46.13258 -103.04,-103.04v0c0,-56.90742 46.13258,-103.04 103.04,-103.04h0c56.90742,0 103.04,46.13258 103.04,103.04v0c0,56.90742 -46.13258,103.04 -103.04,103.04z" fill="none"/><path d="M112,224c-61.85589,0 -112,-50.14411 -112,-112v0c0,-61.85589 50.14411,-112 112,-112h0c61.85589,0 112,50.14411 112,112v0c0,61.85589 -50.14411,112 -112,112z" fill="none"/><path d="M112,215.04c-56.90742,0 -103.04,-46.13258 -103.04,-103.04v0c0,-56.90742 46.13258,-103.04 103.04,-103.04h0c56.90742,0 103.04,46.13258 103.04,103.04v0c0,56.90742 -46.13258,103.04 -103.04,103.04z" fill="none"/><path d="M112,224c-61.85589,0 -112,-50.14411 -112,-112v0c0,-61.85589 50.14411,-112 112,-112h0c61.85589,0 112,50.14411 112,112v0c0,61.85589 -50.14411,112 -112,112z" fill="none"/><path d="M112,215.04c-56.90742,0 -103.04,-46.13258 -103.04,-103.04v0c0,-56.90742 46.13258,-103.04 103.04,-103.04h0c56.90742,0 103.04,46.13258 103.04,103.04v0c0,56.90742 -46.13258,103.04 -103.04,103.04z" fill="none"/><path d="M112,224c-61.85589,0 -112,-50.14411 -112,-112v0c0,-61.85589 50.14411,-112 112,-112h0c61.85589,0 112,50.14411 112,112v0c0,61.85589 -50.14411,112 -112,112z" fill="none"/><path d="M112,215.04c-56.90742,0 -103.04,-46.13258 -103.04,-103.04v0c0,-56.90742 46.13258,-103.04 103.04,-103.04h0c56.90742,0 103.04,46.13258 103.04,103.04v0c0,56.90742 -46.13258,103.04 -103.04,103.04z" fill="none"/><path d="M112,224c-61.85589,0 -112,-50.14411 -112,-112v0c0,-61.85589 50.14411,-112 112,-112h0c61.85589,0 112,50.14411 112,112v0c0,61.85589 -50.14411,112 -112,112z" fill="none"/><path d="M112,215.04c-56.90742,0 -103.04,-46.13258 -103.04,-103.04v0c0,-56.90742 46.13258,-103.04 103.04,-103.04h0c56.90742,0 103.04,46.13258 103.04,103.04v0c0,56.90742 -46.13258,103.04 -103.04,103.04z" fill="none"/><path d="M112,224c-61.85589,0 -112,-50.14411 -112,-112v0c0,-61.85589 50.14411,-112 112,-112h0c61.85589,0 112,50.14411 112,112v0c0,61.85589 -50.14411,112 -112,112z" fill="none"/><path d="M112,215.04c-56.90742,0 -103.04,-46.13258 -103.04,-103.04v0c0,-56.90742 46.13258,-103.04 103.04,-103.04h0c56.90742,0 103.04,46.13258 103.04,103.04v0c0,56.90742 -46.13258,103.04 -103.04,103.04z" fill="none"/><path d="M112,224c-61.85589,0 -112,-50.14411 -112,-112v0c0,-61.85589 50.14411,-112 112,-112h0c61.85589,0 112,50.14411 112,112v0c0,61.85589 -50.14411,112 -112,112z" fill="none"/><path d="M112,215.04c-56.90742,0 -103.04,-46.13258 -103.04,-103.04v0c0,-56.90742 46.13258,-103.04 103.04,-103.04h0c56.90742,0 103.04,46.13258 103.04,103.04v0c0,56.90742 -46.13258,103.04 -103.04,103.04z" fill="none"/><path d="M112,224c-61.85589,0 -112,-50.14411 -112,-112v0c0,-61.85589 50.14411,-112 112,-112h0c61.85589,0 112,50.14411 112,112v0c0,61.85589 -50.14411,112 -112,112z" fill="none"/><path d="M112,215.04c-56.90742,0 -103.04,-46.13258 -103.04,-103.04v0c0,-56.90742 46.13258,-103.04 103.04,-103.04h0c56.90742,0 103.04,46.13258 103.04,103.04v0c0,56.90742 -46.13258,103.04 -103.04,103.04z" fill="none"/><path d="M112,224c-61.85589,0 -112,-50.14411 -112,-112v0c0,-61.85589 50.14411,-112 112,-112h0c61.85589,0 112,50.14411 112,112v0c0,61.85589 -50.14411,112 -112,112z" fill="none"/><path d="M112,215.04c-56.90742,0 -103.04,-46.13258 -103.04,-103.04v0c0,-56.90742 46.13258,-103.04 103.04,-103.04h0c56.90742,0 103.04,46.13258 103.04,103.04v0c0,56.90742 -46.13258,103.04 -103.04,103.04z" fill="none"/><path d="M112,224c-61.85589,0 -112,-50.14411 -112,-112v0c0,-61.85589 50.14411,-112 112,-112h0c61.85589,0 112,50.14411 112,112v0c0,61.85589 -50.14411,112 -112,112z" fill="none"/><path d="M112,215.04c-56.90742,0 -103.04,-46.13258 -103.04,-103.04v0c0,-56.90742 46.13258,-103.04 103.04,-103.04h0c56.90742,0 103.04,46.13258 103.04,103.04v0c0,56.90742 -46.13258,103.04 -103.04,103.04z" fill="none"/><path d="M112,224c-61.85589,0 -112,-50.14411 -112,-112v0c0,-61.85589 50.14411,-112 112,-112h0c61.85589,0 112,50.14411 112,112v0c0,61.85589 -50.14411,112 -112,112z" fill="none"/><path d="M112,215.04c-56.90742,0 -103.04,-46.13258 -103.04,-103.04v0c0,-56.90742 46.13258,-103.04 103.04,-103.04h0c56.90742,0 103.04,46.13258 103.04,103.04v0c0,56.90742 -46.13258,103.04 -103.04,103.04z" fill="none"/><path d="M112,224c-61.85589,0 -112,-50.14411 -112,-112v0c0,-61.85589 50.14411,-112 112,-112h0c61.85589,0 112,50.14411 112,112v0c0,61.85589 -50.14411,112 -112,112z" fill="none"/><path d="M112,215.04c-56.90742,0 -103.04,-46.13258 -103.04,-103.04v0c0,-56.90742 46.13258,-103.04 103.04,-103.04h0c56.90742,0 103.04,46.13258 103.04,103.04v0c0,56.90742 -46.13258,103.04 -103.04,103.04z" fill="none"/></g></g></svg>
